<svg xmlns="http://www.w3.org/2000/svg" xmlns:xlink="http://www.w3.org/1999/xlink" width="1920" zoomAndPan="magnify" viewBox="0 0 1440 809.999993" height="1080" preserveAspectRatio="xMidYMid meet" version="1.0"><defs><g/><clipPath id="c311e8eec3"><rect x="0" width="796" y="0" height="302"/></clipPath><clipPath id="085cb85123"><path d="M 9.75 188.40625 L 587.25 188.40625 L 587.25 621.90625 L 9.75 621.90625 Z M 9.75 188.40625 " clip-rule="nonzero"/></clipPath></defs><g transform="matrix(1, 0, 0, 1, 634, 254)"><g clip-path="url(#c311e8eec3)"><g fill="#ffffff" fill-opacity="1"><g transform="translate(0.168978, 222.070682)"><g><path d="M 7.625 -76.265625 C 7.625 -91.222656 11 -104.617188 17.75 -116.453125 C 24.507812 -128.296875 33.734375 -137.519531 45.421875 -144.125 C 57.117188 -150.738281 70.234375 -154.046875 84.765625 -154.046875 C 101.753906 -154.046875 116.640625 -149.6875 129.421875 -140.96875 C 142.203125 -132.257812 151.140625 -120.207031 156.234375 -104.8125 L 121.140625 -104.8125 C 117.660156 -112.070312 112.757812 -117.515625 106.4375 -121.140625 C 100.125 -124.773438 92.828125 -126.59375 84.546875 -126.59375 C 75.679688 -126.59375 67.796875 -124.519531 60.890625 -120.375 C 53.992188 -116.238281 48.617188 -110.394531 44.765625 -102.84375 C 40.921875 -95.289062 39 -86.429688 39 -76.265625 C 39 -66.242188 40.921875 -57.414062 44.765625 -49.78125 C 48.617188 -42.15625 53.992188 -36.269531 60.890625 -32.125 C 67.796875 -27.988281 75.679688 -25.921875 84.546875 -25.921875 C 92.828125 -25.921875 100.125 -27.773438 106.4375 -31.484375 C 112.757812 -35.191406 117.660156 -40.675781 121.140625 -47.9375 L 156.234375 -47.9375 C 151.140625 -32.394531 142.238281 -20.300781 129.53125 -11.65625 C 116.820312 -3.007812 101.898438 1.3125 84.765625 1.3125 C 70.234375 1.3125 57.117188 -1.988281 45.421875 -8.59375 C 33.734375 -15.207031 24.507812 -24.394531 17.75 -36.15625 C 11 -47.925781 7.625 -61.296875 7.625 -76.265625 Z M 7.625 -76.265625 "/></g></g></g><g fill="#ffffff" fill-opacity="1"><g transform="translate(167.453233, 222.070682)"><g><path d="M 45.546875 -161.234375 L 45.546875 0 L 15.03125 0 L 15.03125 -161.234375 Z M 45.546875 -161.234375 "/></g></g></g><g fill="#ffffff" fill-opacity="1"><g transform="translate(228.006646, 222.070682)"><g><path d="M 68.640625 1.96875 C 57.015625 1.96875 46.550781 -0.609375 37.25 -5.765625 C 27.957031 -10.929688 20.660156 -18.234375 15.359375 -27.671875 C 10.054688 -37.109375 7.40625 -48.003906 7.40625 -60.359375 C 7.40625 -72.703125 10.128906 -83.59375 15.578125 -93.03125 C 21.023438 -102.476562 28.46875 -109.78125 37.90625 -114.9375 C 47.351562 -120.09375 57.882812 -122.671875 69.5 -122.671875 C 81.125 -122.671875 91.65625 -120.09375 101.09375 -114.9375 C 110.539062 -109.78125 117.988281 -102.476562 123.4375 -93.03125 C 128.882812 -83.59375 131.609375 -72.703125 131.609375 -60.359375 C 131.609375 -48.003906 128.8125 -37.109375 123.21875 -27.671875 C 117.625 -18.234375 110.066406 -10.929688 100.546875 -5.765625 C 91.035156 -0.609375 80.398438 1.96875 68.640625 1.96875 Z M 68.640625 -24.625 C 74.160156 -24.625 79.351562 -25.96875 84.21875 -28.65625 C 89.082031 -31.34375 92.96875 -35.375 95.875 -40.75 C 98.78125 -46.125 100.234375 -52.660156 100.234375 -60.359375 C 100.234375 -71.828125 97.21875 -80.648438 91.1875 -86.828125 C 85.15625 -93.003906 77.785156 -96.09375 69.078125 -96.09375 C 60.359375 -96.09375 53.054688 -93.003906 47.171875 -86.828125 C 41.285156 -80.648438 38.34375 -71.828125 38.34375 -60.359375 C 38.34375 -48.878906 41.210938 -40.050781 46.953125 -33.875 C 52.691406 -27.707031 59.921875 -24.625 68.640625 -24.625 Z M 68.640625 -24.625 "/></g></g></g><g fill="#ffffff" fill-opacity="1"><g transform="translate(366.974565, 222.070682)"><g><path d="M 81.921875 -122.453125 C 96.304688 -122.453125 107.925781 -117.910156 116.78125 -108.828125 C 125.644531 -99.753906 130.078125 -87.082031 130.078125 -70.8125 L 130.078125 0 L 99.578125 0 L 99.578125 -66.671875 C 99.578125 -76.265625 97.175781 -83.640625 92.375 -88.796875 C 87.582031 -93.953125 81.050781 -96.53125 72.78125 -96.53125 C 64.351562 -96.53125 57.707031 -93.953125 52.84375 -88.796875 C 47.976562 -83.640625 45.546875 -76.265625 45.546875 -66.671875 L 45.546875 0 L 15.03125 0 L 15.03125 -120.71875 L 45.546875 -120.71875 L 45.546875 -105.671875 C 49.609375 -110.898438 54.796875 -115.003906 61.109375 -117.984375 C 67.429688 -120.960938 74.367188 -122.453125 81.921875 -122.453125 Z M 81.921875 -122.453125 "/></g></g></g><g fill="#ffffff" fill-opacity="1"><g transform="translate(510.98944, 222.070682)"><g><path d="M 9.375 -60.140625 C 9.375 -72.335938 11.84375 -83.046875 16.78125 -92.265625 C 21.71875 -101.492188 28.503906 -108.648438 37.140625 -113.734375 C 45.785156 -118.816406 55.484375 -121.359375 66.234375 -121.359375 C 75.535156 -121.359375 84.179688 -119.21875 92.171875 -114.9375 C 100.160156 -110.65625 106.257812 -105.023438 110.46875 -98.046875 L 110.46875 -161.234375 L 130.515625 -161.234375 L 130.515625 0 L 110.46875 0 L 110.46875 -22.4375 C 106.550781 -15.320312 100.738281 -9.472656 93.03125 -4.890625 C 85.332031 -0.316406 76.328125 1.96875 66.015625 1.96875 C 55.410156 1.96875 45.785156 -0.644531 37.140625 -5.875 C 28.503906 -11.113281 21.71875 -18.453125 16.78125 -27.890625 C 11.84375 -37.328125 9.375 -48.078125 9.375 -60.140625 Z M 110.46875 -59.921875 C 110.46875 -68.921875 108.648438 -76.757812 105.015625 -83.4375 C 101.390625 -90.125 96.488281 -95.25 90.3125 -98.8125 C 84.144531 -102.375 77.351562 -104.15625 69.9375 -104.15625 C 62.53125 -104.15625 55.773438 -102.410156 49.671875 -98.921875 C 43.578125 -95.429688 38.710938 -90.34375 35.078125 -83.65625 C 31.453125 -76.976562 29.640625 -69.140625 29.640625 -60.140625 C 29.640625 -50.984375 31.453125 -43.023438 35.078125 -36.265625 C 38.710938 -29.515625 43.578125 -24.359375 49.671875 -20.796875 C 55.773438 -17.242188 62.53125 -15.46875 69.9375 -15.46875 C 77.351562 -15.46875 84.144531 -17.242188 90.3125 -20.796875 C 96.488281 -24.359375 101.390625 -29.515625 105.015625 -36.265625 C 108.648438 -43.023438 110.46875 -50.910156 110.46875 -59.921875 Z M 110.46875 -59.921875 "/></g></g></g><g fill="#ffffff" fill-opacity="1"><g transform="translate(658.234461, 222.070682)"><g><path d="M 125.71875 -64.28125 C 125.71875 -60.5 125.5 -56.503906 125.0625 -52.296875 L 29.640625 -52.296875 C 30.359375 -40.523438 34.382812 -31.332031 41.71875 -24.71875 C 49.0625 -18.113281 57.960938 -14.8125 68.421875 -14.8125 C 76.984375 -14.8125 84.132812 -16.804688 89.875 -20.796875 C 95.613281 -24.796875 99.644531 -30.140625 101.96875 -36.828125 L 123.328125 -36.828125 C 120.128906 -25.347656 113.734375 -16.007812 104.140625 -8.8125 C 94.554688 -1.625 82.648438 1.96875 68.421875 1.96875 C 57.085938 1.96875 46.953125 -0.570312 38.015625 -5.65625 C 29.085938 -10.75 22.082031 -17.976562 17 -27.34375 C 11.914062 -36.71875 9.375 -47.578125 9.375 -59.921875 C 9.375 -72.265625 11.84375 -83.082031 16.78125 -92.375 C 21.71875 -101.675781 28.648438 -108.832031 37.578125 -113.84375 C 46.515625 -118.851562 56.796875 -121.359375 68.421875 -121.359375 C 79.742188 -121.359375 89.765625 -118.890625 98.484375 -113.953125 C 107.203125 -109.015625 113.921875 -102.222656 118.640625 -93.578125 C 123.359375 -84.941406 125.71875 -75.175781 125.71875 -64.28125 Z M 105.234375 -68.421875 C 105.234375 -75.972656 103.5625 -82.472656 100.21875 -87.921875 C 96.882812 -93.367188 92.347656 -97.507812 86.609375 -100.34375 C 80.867188 -103.175781 74.515625 -104.59375 67.546875 -104.59375 C 57.523438 -104.59375 48.988281 -101.394531 41.9375 -95 C 34.894531 -88.601562 30.863281 -79.742188 29.84375 -68.421875 Z M 105.234375 -68.421875 "/></g></g></g></g></g><g clip-path="url(#085cb85123)"><path fill="#ffffff" d="M 200.230469 289.507812 C 205.40625 294.273438 212.316406 297.179688 219.910156 297.179688 C 224.773438 297.179688 229.339844 295.984375 233.363281 293.882812 L 283.828125 367.875 C 278.609375 373.121094 275.398438 380.359375 275.398438 388.34375 L 275.417969 389.566406 L 237.058594 403.476562 C 233.023438 398.382812 226.789062 395.121094 219.789062 395.121094 C 207.628906 395.121094 197.773438 404.976562 197.773438 417.117188 C 197.773438 429.289062 207.628906 439.136719 219.789062 439.136719 C 231.636719 439.136719 241.300781 429.785156 241.796875 418.054688 L 280.070312 404.171875 C 285.261719 412.125 294.25 417.390625 304.449219 417.390625 C 320.503906 417.390625 333.503906 404.382812 333.503906 388.34375 C 333.503906 372.285156 320.503906 359.277344 304.449219 359.277344 C 301.914062 359.277344 299.46875 359.597656 297.128906 360.207031 L 244.695312 283.292969 C 247.40625 278.871094 248.957031 273.6875 248.957031 268.113281 L 248.816406 265.148438 C 248.203125 259.085938 245.722656 253.574219 241.957031 249.195312 C 236.632812 242.992188 228.730469 239.058594 219.902344 239.058594 C 203.855469 239.058594 190.847656 252.066406 190.847656 268.105469 C 190.847656 271.25 191.335938 274.273438 192.265625 277.117188 C 193.816406 281.921875 196.597656 286.171875 200.230469 289.507812 M 193.582031 526.605469 L 191.707031 526.507812 C 187.867188 526.507812 184.289062 527.6875 181.347656 529.6875 C 176.484375 532.996094 173.300781 538.578125 173.300781 544.902344 C 173.300781 554.4375 180.550781 562.273438 189.851562 563.203125 L 191.707031 563.289062 C 201.871094 563.289062 210.09375 555.042969 210.09375 544.894531 C 210.09375 540.988281 208.894531 537.378906 206.804688 534.402344 L 211.296875 524.789062 L 223.703125 498.230469 L 225.546875 498.304688 C 234.25 498.304688 241.710938 492.949219 244.820312 485.355469 L 288.992188 485.160156 C 292.003906 492.390625 299.128906 497.46875 307.449219 497.46875 C 318.484375 497.46875 327.441406 488.519531 327.441406 477.480469 C 327.441406 466.457031 318.484375 457.496094 307.449219 457.496094 C 299.105469 457.496094 291.960938 462.617188 288.957031 469.875 L 244.980469 470.054688 C 241.984375 462.226562 234.410156 456.671875 225.539062 456.671875 C 218.664062 456.671875 212.574219 459.996094 208.78125 465.125 L 172.371094 445.199219 C 172.734375 443.46875 172.9375 441.667969 172.9375 439.835938 C 172.9375 432.011719 169.402344 425.027344 163.835938 420.367188 L 179.070312 382.707031 L 183.898438 383.019531 C 204.695312 383.019531 221.542969 366.164062 221.542969 345.382812 C 221.542969 324.585938 204.695312 307.742188 183.898438 307.742188 C 163.117188 307.742188 146.273438 324.585938 146.273438 345.382812 C 146.273438 359.09375 153.613281 371.117188 164.582031 377.683594 L 149.660156 414.5625 L 147.578125 414.476562 C 133.574219 414.476562 122.214844 425.828125 122.214844 439.851562 C 122.214844 453.847656 133.566406 465.207031 147.578125 465.207031 C 154.222656 465.207031 160.242188 462.664062 164.769531 458.496094 L 204.9375 480.492188 C 205.519531 484.648438 207.347656 488.386719 210.011719 491.355469 L 195.640625 522.171875 Z M 180.972656 579.257812 C 169.3125 579.257812 159.832031 588.722656 159.832031 600.394531 C 159.832031 612.070312 169.3125 621.527344 180.972656 621.527344 C 192.652344 621.527344 202.097656 612.070312 202.097656 600.394531 C 202.101562 588.722656 192.65625 579.257812 180.972656 579.257812 Z M 103.429688 585.3125 C 115.09375 585.3125 124.5625 575.863281 124.5625 564.1875 C 124.5625 552.515625 115.09375 543.050781 103.429688 543.050781 C 91.75 543.050781 82.3125 552.507812 82.3125 564.1875 C 82.3125 575.855469 91.753906 585.3125 103.429688 585.3125 Z M 95.5625 502.566406 C 105.398438 502.566406 113.390625 494.582031 113.390625 484.746094 C 113.390625 474.898438 105.40625 466.914062 95.5625 466.914062 C 85.714844 466.914062 77.734375 474.898438 77.734375 484.746094 C 77.734375 494.578125 85.714844 502.566406 95.5625 502.566406 Z M 27.898438 449.125 C 37.9375 449.125 46.070312 440.988281 46.070312 430.949219 C 46.070312 420.9375 37.945312 412.808594 27.898438 412.808594 C 17.894531 412.800781 9.75 420.933594 9.75 430.949219 C 9.75 440.988281 17.894531 449.125 27.898438 449.125 Z M 104.246094 407.855469 C 113.648438 404.445312 120.382812 395.425781 120.382812 384.863281 C 120.382812 377.179688 116.835938 370.335938 111.292969 365.851562 C 107.097656 362.453125 101.746094 360.414062 95.925781 360.414062 C 82.414062 360.414062 71.476562 371.363281 71.476562 384.863281 C 71.476562 398.347656 82.414062 409.308594 95.925781 409.308594 C 98.847656 409.300781 101.648438 408.792969 104.246094 407.855469 Z M 101.542969 288.957031 C 101.542969 301.457031 111.671875 311.585938 124.167969 311.585938 C 136.652344 311.585938 146.789062 301.449219 146.789062 288.957031 C 146.789062 276.46875 136.652344 266.335938 124.167969 266.335938 C 111.671875 266.332031 101.542969 276.46875 101.542969 288.957031 Z M 44.824219 328.867188 C 44.824219 320.296875 37.882812 313.359375 29.296875 313.359375 C 20.730469 313.359375 13.78125 320.296875 13.78125 328.867188 C 13.78125 337.433594 20.730469 344.390625 29.296875 344.390625 C 37.875 344.398438 44.824219 337.4375 44.824219 328.867188 Z M 234.078125 345.394531 C 234.078125 360.191406 227.671875 373.484375 217.484375 382.671875 L 219.789062 382.59375 C 227.125 382.59375 234.160156 384.914062 239.964844 389.097656 L 263.605469 380.535156 C 264.476562 375.953125 266.105469 371.5625 268.433594 367.539062 L 228.398438 308.839844 C 225.617188 309.410156 222.773438 309.710938 219.902344 309.710938 L 219.160156 309.707031 C 228.375 318.792969 234.078125 331.425781 234.078125 345.394531 Z M 259.066406 282.132812 L 303.136719 346.773438 L 304.457031 346.75 C 327.433594 346.75 346.042969 365.375 346.042969 388.34375 C 346.042969 411.304688 327.425781 429.921875 304.457031 429.921875 C 293.859375 429.921875 283.835938 425.898438 276.242188 418.894531 L 252.792969 427.394531 C 250.289062 435.441406 244.925781 442.210938 237.910156 446.542969 C 243.585938 448.8125 248.542969 452.605469 252.226562 457.515625 L 281.886719 457.390625 C 287.949219 449.691406 297.304688 444.984375 307.441406 444.984375 C 325.386719 444.984375 339.960938 459.550781 339.960938 477.496094 C 339.960938 495.449219 325.394531 510.015625 307.441406 510.015625 C 297.351562 510.015625 288.054688 505.363281 281.992188 497.734375 L 251.933594 497.875 C 247.0625 504.160156 240.019531 508.546875 231.960938 510.160156 L 224.839844 525.40625 L 468.230469 525.40625 C 533.988281 525.40625 587.296875 472.101562 587.296875 406.347656 C 587.296875 340.582031 533.988281 287.28125 468.230469 287.28125 L 463.125 287.394531 C 453.546875 231.226562 404.65625 188.472656 345.765625 188.472656 C 305.835938 188.472656 270.492188 208.140625 248.894531 238.304688 C 255.691406 244.90625 260.257812 253.828125 261.277344 263.886719 L 261.335938 264.570312 L 261.480469 267.820312 L 261.480469 268.113281 C 261.480469 272.925781 260.664062 277.660156 259.066406 282.132812 Z M 259.066406 282.132812 " fill-opacity="1" fill-rule="evenodd"/></g></svg>